<svg width="80" height="80" viewBox="0 0 80 80" fill="none" xmlns="http://www.w3.org/2000/svg">
<path d="M74.9995 40C75.0016 40.8488 74.7839 41.6837 74.3677 42.4236C73.9516 43.1634 73.351 43.7829 72.6245 44.2219L27.5995 71.7656C26.8404 72.2304 25.971 72.4842 25.081 72.5007C24.191 72.5172 23.3128 72.2958 22.537 71.8594C21.7686 71.4297 21.1285 70.8032 20.6825 70.0441C20.2365 69.2851 20.0008 68.421 19.9995 67.5406V12.4594C20.0008 11.579 20.2365 10.7149 20.6825 9.95584C21.1285 9.1968 21.7686 8.57025 22.537 8.14061C23.3128 7.7042 24.191 7.4828 25.081 7.49929C25.971 7.51577 26.8404 7.76953 27.5995 8.23436L72.6245 35.7781C73.351 36.2171 73.9516 36.8366 74.3677 37.5764C74.7839 38.3162 75.0016 39.1512 74.9995 40Z" fill="white"/>
</svg>
