<svg width="24" height="25" viewBox="0 0 24 25" fill="none" xmlns="http://www.w3.org/2000/svg">
<path d="M9.484 8.502H7.517L8.501 6.175L9.484 8.502ZM0 3.25C0 2.52065 0.289731 1.82118 0.805456 1.30546C1.32118 0.789731 2.02065 0.5 2.75 0.5H19.25C19.9793 0.5 20.6788 0.789731 21.1945 1.30546C21.7103 1.82118 22 2.52065 22 3.25V12.037C20.6939 11.0378 19.0945 10.4975 17.45 10.5C16.2859 10.4991 15.1376 10.7697 14.0962 11.2901C13.0549 11.8105 12.1492 12.5665 11.451 13.498H4.225C4.02609 13.498 3.83532 13.577 3.69467 13.7177C3.55402 13.8583 3.475 14.0491 3.475 14.248C3.475 14.4469 3.55402 14.6377 3.69467 14.7783C3.83532 14.919 4.02609 14.998 4.225 14.998H10.575C10.1621 15.9449 9.94937 16.967 9.95 18C9.95 19.688 10.508 21.247 11.45 22.5H2.75C2.02065 22.5 1.32118 22.2103 0.805456 21.6945C0.289731 21.1788 0 20.4793 0 19.75V3.25ZM9.192 3.958C9.13451 3.82241 9.03838 3.70674 8.91558 3.62543C8.79279 3.54412 8.64877 3.50076 8.5015 3.50076C8.35423 3.50076 8.21021 3.54412 8.08742 3.62543C7.96462 3.70674 7.86849 3.82241 7.811 3.958L5.059 10.46C5.02059 10.5507 5.00043 10.6482 4.99966 10.7467C4.9989 10.8452 5.01756 10.943 5.05456 11.0343C5.09156 11.1256 5.14619 11.2088 5.21533 11.279C5.28447 11.3492 5.36676 11.4051 5.4575 11.4435C5.54824 11.4819 5.64566 11.5021 5.7442 11.5028C5.84274 11.5036 5.94046 11.4849 6.03178 11.4479C6.12311 11.4109 6.20625 11.3563 6.27647 11.2872C6.34668 11.218 6.40259 11.1357 6.441 11.045L6.882 10.002H10.118L10.559 11.044C10.6375 11.2255 10.7845 11.3686 10.968 11.4422C11.1515 11.5159 11.3567 11.5141 11.5389 11.4372C11.721 11.3604 11.8655 11.2147 11.9408 11.0319C12.0161 10.849 12.0162 10.6439 11.941 10.461L9.192 3.958ZM3.475 18.25C3.475 18.664 3.811 19 4.225 19H8.751C8.94991 19 9.14068 18.921 9.28133 18.7803C9.42198 18.6397 9.501 18.4489 9.501 18.25C9.501 18.0511 9.42198 17.8603 9.28133 17.7197C9.14068 17.579 8.94991 17.5 8.751 17.5H4.225C4.02609 17.5 3.83532 17.579 3.69467 17.7197C3.55402 17.8603 3.475 18.0511 3.475 18.25ZM15.5 4.25C15.5 4.05109 15.421 3.86032 15.2803 3.71967C15.1397 3.57902 14.9489 3.5 14.75 3.5C14.5511 3.5 14.3603 3.57902 14.2197 3.71967C14.079 3.86032 14 4.05109 14 4.25V5.5H12.752C12.5531 5.5 12.3623 5.57902 12.2217 5.71967C12.081 5.86032 12.002 6.05109 12.002 6.25C12.002 6.44891 12.081 6.63968 12.2217 6.78033C12.3623 6.92098 12.5531 7 12.752 7H14V8.248C14 8.44691 14.079 8.63768 14.2197 8.77833C14.3603 8.91898 14.5511 8.998 14.75 8.998C14.9489 8.998 15.1397 8.91898 15.2803 8.77833C15.421 8.63768 15.5 8.44691 15.5 8.248V7H16.75C16.9489 7 17.1397 6.92098 17.2803 6.78033C17.421 6.63968 17.5 6.44891 17.5 6.25C17.5 6.05109 17.421 5.86032 17.2803 5.71967C17.1397 5.57902 16.9489 5.5 16.75 5.5H15.5V4.25ZM23.95 18C23.95 19.7239 23.2652 21.3772 22.0462 22.5962C20.8272 23.8152 19.1739 24.5 17.45 24.5C15.7261 24.5 14.0728 23.8152 12.8538 22.5962C11.6348 21.3772 10.95 19.7239 10.95 18C10.95 16.2761 11.6348 14.6228 12.8538 13.4038C14.0728 12.1848 15.7261 11.5 17.45 11.5C19.1739 11.5 20.8272 12.1848 22.0462 13.4038C23.2652 14.6228 23.95 16.2761 23.95 18ZM17.95 14C17.95 13.8674 17.8973 13.7402 17.8036 13.6464C17.7098 13.5527 17.5826 13.5 17.45 13.5C17.3174 13.5 17.1902 13.5527 17.0964 13.6464C17.0027 13.7402 16.95 13.8674 16.95 14V17.5H13.45C13.3174 17.5 13.1902 17.5527 13.0964 17.6464C13.0027 17.7402 12.95 17.8674 12.95 18C12.95 18.1326 13.0027 18.2598 13.0964 18.3536C13.1902 18.4473 13.3174 18.5 13.45 18.5H16.95V22C16.95 22.1326 17.0027 22.2598 17.0964 22.3536C17.1902 22.4473 17.3174 22.5 17.45 22.5C17.5826 22.5 17.7098 22.4473 17.8036 22.3536C17.8973 22.2598 17.95 22.1326 17.95 22V18.5H21.45C21.5826 18.5 21.7098 18.4473 21.8036 18.3536C21.8973 18.2598 21.95 18.1326 21.95 18C21.95 17.8674 21.8973 17.7402 21.8036 17.6464C21.7098 17.5527 21.5826 17.5 21.45 17.5H17.95V14Z" fill="#030712"/>
</svg>
