<svg width="22" height="24" viewBox="0 0 22 24" fill="none" xmlns="http://www.w3.org/2000/svg">
<path fill-rule="evenodd" clip-rule="evenodd" d="M6.5271 0.6636C6.62669 0.464303 6.7798 0.296666 6.96927 0.179463C7.15875 0.0622598 7.37711 0.000118978 7.5999 0H14.7999C15.0227 0.000118978 15.2411 0.0622598 15.4305 0.179463C15.62 0.296666 15.7731 0.464303 15.8727 0.6636L17.9415 4.8H20.7999C21.1182 4.8 21.4234 4.92643 21.6484 5.15147C21.8735 5.37652 21.9999 5.68174 21.9999 6C21.9999 6.31826 21.8735 6.62348 21.6484 6.84853C21.4234 7.07357 21.1182 7.2 20.7999 7.2H19.5999V20.4C19.5999 21.3548 19.2206 22.2705 18.5455 22.9456C17.8704 23.6207 16.9547 24 15.9999 24H6.3999C5.44512 24 4.52945 23.6207 3.85432 22.9456C3.17919 22.2705 2.7999 21.3548 2.7999 20.4V7.2H1.5999C1.28164 7.2 0.976418 7.07357 0.751374 6.84853C0.526331 6.62348 0.399902 6.31826 0.399902 6C0.399902 5.68174 0.526331 5.37652 0.751374 5.15147C0.976418 4.92643 1.28164 4.8 1.5999 4.8H4.4583L6.5271 0.6636ZM14.0583 2.4L15.2583 4.8H7.1415L8.3415 2.4H14.0583ZM9.9999 10.8C9.9999 10.4817 9.87347 10.1765 9.64843 9.95147C9.42339 9.72643 9.11816 9.6 8.7999 9.6C8.48164 9.6 8.17642 9.72643 7.95137 9.95147C7.72633 10.1765 7.5999 10.4817 7.5999 10.8V18C7.5999 18.3183 7.72633 18.6235 7.95137 18.8485C8.17642 19.0736 8.48164 19.2 8.7999 19.2C9.11816 19.2 9.42339 19.0736 9.64843 18.8485C9.87347 18.6235 9.9999 18.3183 9.9999 18V10.8ZM14.7999 10.8C14.7999 10.4817 14.6735 10.1765 14.4484 9.95147C14.2234 9.72643 13.9182 9.6 13.5999 9.6C13.2816 9.6 12.9764 9.72643 12.7514 9.95147C12.5263 10.1765 12.3999 10.4817 12.3999 10.8V18C12.3999 18.3183 12.5263 18.6235 12.7514 18.8485C12.9764 19.0736 13.2816 19.2 13.5999 19.2C13.9182 19.2 14.2234 19.0736 14.4484 18.8485C14.6735 18.6235 14.7999 18.3183 14.7999 18V10.8Z" fill="white"/>
</svg>
