<svg width="33" height="32" viewBox="0 0 33 32" fill="none" xmlns="http://www.w3.org/2000/svg">
<path d="M4.3999 23V28H9.3999L24.1466 13.2533L19.1466 8.25333L4.3999 23ZM28.0132 9.38666C28.1368 9.26331 28.2349 9.11679 28.3018 8.95549C28.3687 8.79419 28.4032 8.62128 28.4032 8.44666C28.4032 8.27204 28.3687 8.09913 28.3018 7.93783C28.2349 7.77653 28.1368 7.63001 28.0132 7.50666L24.8932 4.38666C24.7699 4.26306 24.6234 4.16499 24.4621 4.09808C24.3008 4.03117 24.1279 3.99673 23.9532 3.99673C23.7786 3.99673 23.6057 4.03117 23.4444 4.09808C23.2831 4.16499 23.1366 4.26306 23.0132 4.38666L20.5732 6.82666L25.5732 11.8267L28.0132 9.38666Z" fill="white"/>
</svg>
