<svg width="56" height="57" viewBox="0 0 56 57" fill="none" xmlns="http://www.w3.org/2000/svg">
<rect x="4" y="4.5" width="48" height="48" rx="24" fill="#030712"/>
<rect x="4" y="4.5" width="48" height="48" rx="24" stroke="#0B1739" stroke-opacity="0.3" stroke-width="8"/>
<path d="M27.9998 24.5V28.5M27.9998 32.5H28.0098M26.2898 19.36L17.8198 33.5C17.6451 33.8024 17.5527 34.1453 17.5518 34.4945C17.5508 34.8437 17.6413 35.1871 17.8142 35.4905C17.9871 35.7939 18.2365 36.0467 18.5375 36.2238C18.8385 36.4009 19.1806 36.4962 19.5298 36.5H36.4698C36.819 36.4962 37.1611 36.4009 37.4621 36.2238C37.7631 36.0467 38.0124 35.7939 38.1854 35.4905C38.3583 35.1871 38.4488 34.8437 38.4478 34.4945C38.4468 34.1453 38.3544 33.8024 38.1798 33.5L29.7098 19.36C29.5315 19.0661 29.2805 18.8231 28.981 18.6545C28.6814 18.4858 28.3435 18.3972 27.9998 18.3972C27.656 18.3972 27.3181 18.4858 27.0186 18.6545C26.7191 18.8231 26.468 19.0661 26.2898 19.36Z" stroke="#DC6803" stroke-width="2" stroke-linecap="round" stroke-linejoin="round"/>
</svg>
