<svg width="32" height="32" viewBox="0 0 32 32" fill="none" xmlns="http://www.w3.org/2000/svg">
<rect width="32" height="32" rx="16" fill="white"/>
<path fill-rule="evenodd" clip-rule="evenodd" d="M14.5777 11.4681C14.1523 11.0427 13.4085 10.615 12.0363 10.9581C10.6593 11.3025 9.64355 12.3284 9.30615 13.5933C8.975 14.8348 9.27463 16.4111 10.7575 17.8937L15.4138 22.5493C15.7393 22.8748 16.265 22.8747 16.5905 22.549C17.6361 21.5027 19.2977 19.8403 21.2442 17.8938C22.7263 16.4117 23.0261 14.8353 22.695 13.5936C22.3577 12.3285 21.3421 11.3025 19.9649 10.9582C18.5922 10.615 17.8484 11.0427 17.423 11.4681C17.1903 11.7008 17.0302 11.9588 16.928 12.163C16.8777 12.2637 16.8435 12.3473 16.823 12.402C16.8128 12.4292 16.8061 12.4488 16.8026 12.4594L16.8 12.4678C16.6959 12.8224 16.3704 13.0663 16.0004 13.0664C15.6304 13.0664 15.305 12.8225 15.2009 12.468L15.1982 12.4595C15.1947 12.4489 15.188 12.4293 15.1778 12.402C15.1573 12.3473 15.1231 12.2638 15.0727 12.1631C14.9706 11.9588 14.8104 11.7008 14.5777 11.4681ZM16.0003 10.5565C16.0752 10.4671 16.1564 10.3777 16.2445 10.2896C17.0691 9.46499 18.4086 8.8511 20.3692 9.34125C22.3252 9.83028 23.8095 11.3042 24.3054 13.1642C24.8076 15.0475 24.2739 17.2211 22.4227 19.0723C20.4764 21.0187 18.8149 22.6809 17.7694 23.7271C16.7932 24.704 15.212 24.7044 14.2354 23.7279L9.57907 19.0723C7.72713 17.2207 7.19343 15.0471 7.69579 13.1638C8.19188 11.3039 9.6764 9.83027 11.632 9.34126C13.5922 8.85107 14.9316 9.46504 15.7562 10.2896C15.8443 10.3777 15.9255 10.4671 16.0003 10.5565Z" fill="#191D23"/>
</svg>
