<svg width="1440" height="1024" viewBox="0 0 1440 1024" fill="none" xmlns="http://www.w3.org/2000/svg">
<g clip-path="url(#clip0_1_7)">
<rect width="1440" height="1024" fill="#030712"/>
<g opacity="0.1">
<g filter="url(#filter0_f_1_7)">
<circle cx="1146.09" cy="808.588" r="148.387" transform="rotate(45 1146.09 808.588)" fill="#1474FE"/>
</g>
<g filter="url(#filter1_f_1_7)">
<circle cx="1375.85" cy="196.851" r="148.387" transform="rotate(45 1375.85 196.851)" fill="#1474FE"/>
</g>
<g filter="url(#filter2_f_1_7)">
<circle cx="1375.51" cy="788.532" r="148.387" transform="rotate(45 1375.51 788.532)" fill="#FFD52B"/>
</g>
<g filter="url(#filter3_f_1_7)">
<circle cx="1287.46" cy="1018.44" r="148.387" transform="rotate(45 1287.46 1018.44)" fill="#FF3413"/>
</g>
</g>
<g opacity="0.2">
<rect x="698" y="970" width="75" height="48" fill="#FDE047"/>
<rect x="831" y="922" width="75" height="48" fill="#FDE047"/>
<rect x="1089" y="931" width="74" height="39" fill="#FDE047"/>
<rect x="1214" y="904" width="74" height="66" fill="#FDE047"/>
<rect x="1339" y="922" width="75" height="48" fill="#FDE047"/>
<path d="M672 980L735.832 969L853.962 938.683C863.328 936.279 873.189 936.643 882.352 939.729L982.34 973.407C991.249 976.408 1000.82 976.836 1009.97 974.643L1127.25 946.5L1243.27 930.133C1248.59 929.383 1254 929.495 1259.28 930.465L1372.08 951.178C1375.06 951.725 1378.08 952 1381.11 952H1444" stroke="white" stroke-width="2"/>
</g>
</g>
<defs>
<filter id="filter0_f_1_7" x="825.591" y="488.085" width="641.005" height="641.005" filterUnits="userSpaceOnUse" color-interpolation-filters="sRGB">
<feFlood flood-opacity="0" result="BackgroundImageFix"/>
<feBlend mode="normal" in="SourceGraphic" in2="BackgroundImageFix" result="shape"/>
<feGaussianBlur stdDeviation="86.0577" result="effect1_foregroundBlur_1_7"/>
</filter>
<filter id="filter1_f_1_7" x="1055.35" y="-123.651" width="641.005" height="641.005" filterUnits="userSpaceOnUse" color-interpolation-filters="sRGB">
<feFlood flood-opacity="0" result="BackgroundImageFix"/>
<feBlend mode="normal" in="SourceGraphic" in2="BackgroundImageFix" result="shape"/>
<feGaussianBlur stdDeviation="86.0577" result="effect1_foregroundBlur_1_7"/>
</filter>
<filter id="filter2_f_1_7" x="1055.01" y="468.03" width="641.005" height="641.005" filterUnits="userSpaceOnUse" color-interpolation-filters="sRGB">
<feFlood flood-opacity="0" result="BackgroundImageFix"/>
<feBlend mode="normal" in="SourceGraphic" in2="BackgroundImageFix" result="shape"/>
<feGaussianBlur stdDeviation="86.0577" result="effect1_foregroundBlur_1_7"/>
</filter>
<filter id="filter3_f_1_7" x="966.959" y="697.937" width="641.005" height="641.005" filterUnits="userSpaceOnUse" color-interpolation-filters="sRGB">
<feFlood flood-opacity="0" result="BackgroundImageFix"/>
<feBlend mode="normal" in="SourceGraphic" in2="BackgroundImageFix" result="shape"/>
<feGaussianBlur stdDeviation="86.0577" result="effect1_foregroundBlur_1_7"/>
</filter>
<clipPath id="clip0_1_7">
<rect width="1440" height="1024" fill="white"/>
</clipPath>
</defs>
</svg>
