<svg width="132" height="27" viewBox="0 0 132 27" fill="none" xmlns="http://www.w3.org/2000/svg">
<path fill-rule="evenodd" clip-rule="evenodd" d="M9.55363 0.275879C9.09481 0.275879 8.72287 0.647826 8.72287 1.10665V8.99895H8.72283C3.90521 8.99895 -0.000244141 12.9044 -0.000244141 17.722C-0.000244141 22.5396 3.90521 26.4451 8.72283 26.4451H16.6151C17.074 26.4451 17.4459 26.0731 17.4459 25.6143V17.722H17.4459C22.2636 17.722 26.169 13.8166 26.169 8.99895C26.169 4.18133 22.2636 0.275879 17.4459 0.275879H9.55363ZM17.4459 17.722V9.82971C17.4459 9.37089 17.074 8.99895 16.6151 8.99895H8.72287V16.8913C8.72287 17.3501 9.09481 17.722 9.55363 17.722H17.4459Z" fill="#FDE047"/>
<path d="M9.46003 0.275879C9.05291 0.275879 8.72287 0.605917 8.72287 1.01304L8.72287 8.99895H16.7088C17.1159 8.99895 17.4459 9.32899 17.4459 9.73611L17.4459 17.722C22.2636 17.722 26.169 13.8166 26.169 8.99895C26.169 4.18133 22.2636 0.275879 17.4459 0.275879H9.46003Z" fill="#00C2FF"/>
<path d="M34.0111 20.3605V6.14175H38.0931C39.8965 6.14175 41.3874 6.74397 42.5658 7.94839C43.7507 9.14631 44.3431 10.7674 44.3431 12.8117V13.6906C44.3431 15.7349 43.7539 17.3592 42.5755 18.5636C41.3971 19.7615 39.903 20.3605 38.0931 20.3605H34.0111ZM35.7787 18.8957H38.0931C39.4603 18.8957 40.5443 18.4367 41.3451 17.5187C42.1524 16.6007 42.556 15.3247 42.556 13.6906V12.8117C42.556 11.1776 42.1524 9.90152 41.3451 8.98355C40.5378 8.06558 39.4538 7.6066 38.0931 7.6066H35.7787V18.8957ZM46.2669 17.4015C46.2669 16.3859 46.6673 15.5916 47.4681 15.0187C48.2754 14.4458 49.3073 14.1593 50.5638 14.1593H52.8685V13.4269C52.8685 12.8084 52.7057 12.3104 52.3802 11.9328C52.0612 11.5552 51.5176 11.3664 50.7494 11.3664C49.9746 11.3664 49.4147 11.5259 49.0697 11.8449C48.7311 12.1574 48.5619 12.5317 48.5619 12.9679V13.0461H46.8529V12.9484C46.8529 12.1541 47.2044 11.464 47.9076 10.8781C48.6172 10.2856 49.5775 9.98941 50.7884 9.98941C51.9928 9.98941 52.9238 10.2759 53.5814 10.8488C54.2455 11.4152 54.5775 12.2746 54.5775 13.4269V18.0168C54.5775 18.4399 54.61 18.8403 54.6751 19.2179C54.7402 19.589 54.8314 19.9178 54.9486 20.2043V20.3605H53.2982C53.207 20.1977 53.1224 19.9862 53.0443 19.7257C52.9727 19.4653 52.9271 19.2049 52.9076 18.9445C52.6667 19.3612 52.2793 19.7322 51.7455 20.0578C51.2181 20.3833 50.5345 20.5461 49.6947 20.5461C48.7311 20.5461 47.9173 20.2759 47.2533 19.7355C46.5957 19.1951 46.2669 18.4171 46.2669 17.4015ZM47.9759 17.3136C47.9759 17.8996 48.1452 18.3553 48.4837 18.6808C48.8288 19.0063 49.3529 19.1691 50.056 19.1691C50.7721 19.1691 51.4199 18.925 51.9994 18.4367C52.5788 17.9419 52.8685 17.4145 52.8685 16.8546V15.3996H50.7591C49.8412 15.3996 49.1478 15.5721 48.679 15.9171C48.2103 16.2622 47.9759 16.7277 47.9759 17.3136ZM56.7259 17.3625H58.4447V17.4406C58.4447 18.0395 58.6595 18.4888 59.0892 18.7882C59.5189 19.0812 60.0886 19.2277 60.7982 19.2277C61.5143 19.2277 62.0775 19.0877 62.4876 18.8078C62.8978 18.5213 63.1029 18.147 63.1029 17.6847C63.1029 17.2225 62.9336 16.8709 62.5951 16.63C62.263 16.3826 61.5567 16.1287 60.4759 15.8683C59.3887 15.6079 58.5326 15.2498 57.9076 14.7941C57.2826 14.3319 56.9701 13.6873 56.9701 12.8605C56.9701 12.0272 57.3086 11.3403 57.9857 10.8C58.6693 10.2596 59.5807 9.98941 60.7201 9.98941C61.8594 9.98941 62.7774 10.2596 63.474 10.8C64.1706 11.3403 64.5189 12.0793 64.5189 13.0168V13.0851H62.8099V12.9875C62.8099 12.4796 62.6374 12.089 62.2923 11.8156C61.9473 11.5421 61.4232 11.4054 60.7201 11.4054C60.0169 11.4054 59.4994 11.5324 59.1673 11.7863C58.8353 12.0402 58.6693 12.369 58.6693 12.7726C58.6693 13.1632 58.8548 13.4757 59.2259 13.7101C59.597 13.938 60.3229 14.1821 61.4037 14.4425C62.4844 14.703 63.3177 15.0708 63.9037 15.5461C64.4961 16.0148 64.7923 16.6919 64.7923 17.5773C64.7923 18.4757 64.4603 19.2114 63.7962 19.7843C63.1322 20.3572 62.1361 20.6437 60.808 20.6437C59.4733 20.6437 58.4577 20.354 57.7611 19.7746C57.071 19.1951 56.7259 18.4171 56.7259 17.4406V17.3625ZM66.9896 20.3605V5.46793H68.6986V11.5324C69.0501 11.0897 69.5026 10.7381 70.056 10.4777C70.6094 10.2108 71.2149 10.0773 71.8724 10.0773C72.8164 10.0773 73.5879 10.3638 74.1869 10.9367C74.7858 11.5096 75.0853 12.4731 75.0853 13.8273V20.3605H73.3763V13.8175C73.3763 12.9972 73.1908 12.4113 72.8197 12.0597C72.4551 11.7016 71.9343 11.5226 71.2572 11.5226C70.6843 11.5226 70.1764 11.6789 69.7337 11.9914C69.291 12.3039 68.946 12.7075 68.6986 13.2023V20.3605H66.9896ZM77.1947 15.4679V15.1554C77.1947 13.6841 77.5755 12.4699 78.3372 11.5128C79.1055 10.5558 80.1276 10.0773 81.4037 10.0773C82.1133 10.0773 82.7155 10.2043 83.2103 10.4582C83.7116 10.7056 84.1087 11.0376 84.4017 11.4543V5.46793H86.1205V20.3605H84.5677L84.4994 19.0324H84.4408C84.1803 19.449 83.7865 19.8071 83.2591 20.1066C82.7318 20.4061 82.1133 20.5558 81.4037 20.5558C80.1211 20.5558 79.099 20.0773 78.3372 19.1203C77.5755 18.1567 77.1947 16.9393 77.1947 15.4679ZM78.9427 15.4679C78.9427 16.5096 79.1706 17.382 79.6263 18.0851C80.082 18.7882 80.7949 19.1398 81.765 19.1398C82.416 19.1398 82.9662 18.964 83.4154 18.6125C83.8711 18.2544 84.1999 17.8475 84.4017 17.3918V13.2218C84.2064 12.7661 83.8809 12.3625 83.4251 12.0109C82.9694 11.6593 82.416 11.4836 81.765 11.4836C80.7949 11.4836 80.082 11.8351 79.6263 12.5382C79.1706 13.2414 78.9427 14.1138 78.9427 15.1554V15.4679ZM88.3763 17.4015C88.3763 16.3859 88.7767 15.5916 89.5775 15.0187C90.3848 14.4458 91.4167 14.1593 92.6732 14.1593H94.9779V13.4269C94.9779 12.8084 94.8151 12.3104 94.4896 11.9328C94.1706 11.5552 93.627 11.3664 92.8587 11.3664C92.084 11.3664 91.5241 11.5259 91.179 11.8449C90.8405 12.1574 90.6712 12.5317 90.6712 12.9679V13.0461H88.9622V12.9484C88.9622 12.1541 89.3138 11.464 90.0169 10.8781C90.7266 10.2856 91.6869 9.98941 92.8978 9.98941C94.1022 9.98941 95.0332 10.2759 95.6908 10.8488C96.3548 11.4152 96.6869 12.2746 96.6869 13.4269V18.0168C96.6869 18.4399 96.7194 18.8403 96.7845 19.2179C96.8496 19.589 96.9408 19.9178 97.058 20.2043V20.3605H95.4076C95.3164 20.1977 95.2318 19.9862 95.1537 19.7257C95.082 19.4653 95.0365 19.2049 95.0169 18.9445C94.7761 19.3612 94.3887 19.7322 93.8548 20.0578C93.3275 20.3833 92.6439 20.5461 91.804 20.5461C90.8405 20.5461 90.0267 20.2759 89.3626 19.7355C88.7051 19.1951 88.3763 18.4171 88.3763 17.4015ZM90.0853 17.3136C90.0853 17.8996 90.2546 18.3553 90.5931 18.6808C90.9382 19.0063 91.4622 19.1691 92.1654 19.1691C92.8815 19.1691 93.5293 18.925 94.1087 18.4367C94.6882 17.9419 94.9779 17.4145 94.9779 16.8546V15.3996H92.8685C91.9505 15.3996 91.2572 15.5721 90.7884 15.9171C90.3197 16.2622 90.0853 16.7277 90.0853 17.3136ZM99.4505 20.3605V10.2726H101.003L101.072 11.5812H101.12C101.381 11.1515 101.723 10.7804 102.146 10.4679C102.569 10.1489 103.074 9.98941 103.66 9.98941C103.796 9.98941 103.943 10.0057 104.099 10.0382C104.255 10.0643 104.366 10.0903 104.431 10.1164V11.7082C104.307 11.6821 104.174 11.6626 104.031 11.6496C103.887 11.6365 103.728 11.63 103.552 11.63C102.986 11.63 102.494 11.783 102.077 12.089C101.667 12.395 101.361 12.7791 101.16 13.2414V20.3605H99.4505ZM106.091 20.3605V5.46793H107.8V14.9113L112.126 10.2726H114.089L107.8 16.9328V20.3605H106.091ZM112.556 20.3605L108.611 15.0871L109.685 13.8957L114.558 20.3605H112.556ZM119.294 20.3605L124.294 12.4992H124.431L128.24 6.14175H130.183L125.437 13.7687H125.31L121.247 20.3605H119.294ZM119.538 6.14175H121.531L125.349 12.4992H125.427L130.427 20.3605H128.435L124.372 13.7785H124.294L119.538 6.14175Z" fill="white"/>
</svg>
