<svg width="77" height="44" viewBox="0 0 77 44" fill="none" xmlns="http://www.w3.org/2000/svg">
<path d="M8.46243 44.0083V24.3541C7.78257 25.034 7.0718 25.699 6.33014 26.3492C5.58847 26.9994 4.72319 27.725 3.7343 28.526C3.23986 27.8462 2.74541 27.1972 2.25097 26.5791C1.75652 25.9611 1.23118 25.4048 0.674927 24.9104C3.39437 22.9944 5.85176 20.8621 8.04709 18.5135C10.2424 16.1649 12.235 13.5691 14.0249 10.726L18.0114 12.3021C17.1461 13.7854 16.2969 15.1142 15.4638 16.2885C14.6306 17.4628 13.7802 18.5444 12.9124 19.5333V44.0083H8.46243ZM30.4343 44.0083C29.6926 44.0083 28.9361 43.9935 28.1648 43.9638C27.3935 43.9341 26.6048 43.8563 25.7989 43.7302C25.5517 42.6795 25.3044 41.8451 25.0572 41.2271C24.81 40.609 24.5319 40.0528 24.2228 39.5583H31.9176C32.2267 39.5583 32.4591 39.4817 32.6148 39.3284C32.7706 39.1751 32.8472 38.9427 32.8447 38.6312V20.4604H17.5478V16.3812H44.2478V20.5531H37.2947V39.1875C37.2947 40.2382 37.1711 41.0577 36.9239 41.6461C36.6767 42.2345 36.2749 42.7129 35.7187 43.0812C35.2242 43.3903 34.5753 43.6226 33.7718 43.7784C32.9683 43.9341 31.8558 44.0108 30.4343 44.0083ZM3.7343 14.8979C3.23986 14.3416 2.79115 13.7706 2.38818 13.1846C1.98521 12.5987 1.56987 11.9955 1.14218 11.375C3.6762 9.64443 5.8394 7.9287 7.63176 6.22781C9.42412 4.52693 10.9371 2.75187 12.1708 0.902649L16.3426 2.5714C14.7357 4.8582 12.8815 7.0214 10.7801 9.06098C8.67875 11.1006 6.33014 13.0474 3.7343 14.9016M19.4947 7.94848V3.86931H42.9499L42.7645 7.94848H19.4947ZM59.0812 36.0354C60.8117 36.0354 62.4966 35.6337 64.1356 34.8302C65.7747 34.0267 67.2729 32.8833 68.6301 31.4V21.5729C67.2086 21.7583 65.8959 21.9746 64.6919 22.2219C63.4879 22.4691 62.3593 22.7472 61.3062 23.0562C58.5249 23.9215 56.4396 25.0031 55.0502 26.301C53.6608 27.5989 52.9649 29.1132 52.9624 30.8437C52.9624 32.4507 53.5187 33.7177 54.6312 34.6448C55.7437 35.5719 57.227 36.0354 59.0812 36.0354ZM56.9489 42.3396C53.426 42.3396 50.6447 41.3358 48.6051 39.3284C46.5656 37.321 45.5458 34.5854 45.5458 31.1219C45.5458 27.908 46.5656 25.2812 48.6051 23.2416C50.6447 21.2021 53.9204 19.5642 58.4322 18.3281C59.8537 17.9573 61.415 17.6173 63.1159 17.3083C64.8167 16.9993 66.6548 16.7212 68.6301 16.4739C68.5065 13.5691 67.8267 11.4516 66.5906 10.1216C65.3544 8.79151 63.4385 8.12772 60.8426 8.13019C59.2357 8.13019 57.6448 8.42438 56.07 9.01277C54.4952 9.60116 52.4705 10.6358 49.9958 12.1166L47.0291 6.92498C49.0687 5.37984 51.4643 4.1289 54.2158 3.17215C56.9674 2.2154 59.7635 1.73579 62.6041 1.73332C66.9923 1.73332 70.3298 3.09304 72.6166 5.81248C74.9034 8.53193 76.0468 12.4875 76.0468 17.6791V41.5052H69.8354L69.2791 37.3333C67.5485 38.8785 65.6486 40.0997 63.5794 40.9971C61.5101 41.8946 59.3 42.342 56.9489 42.3396Z" fill="#FDE047"/>
</svg>
