<svg width="40" height="40" viewBox="0 0 40 40" fill="none" xmlns="http://www.w3.org/2000/svg">
<rect width="40" height="40" rx="20" fill="#FACC15"/>
<path d="M28.5938 10.625V26.25C28.5938 26.4572 28.5114 26.6559 28.3649 26.8024C28.2184 26.9489 28.0197 27.0313 27.8125 27.0313H14.5313C14.1168 27.0313 13.7194 27.1959 13.4264 27.4889C13.1334 27.7819 12.9688 28.1793 12.9688 28.5938H26.25C26.4572 28.5938 26.6559 28.6761 26.8024 28.8226C26.9489 28.9691 27.0313 29.1678 27.0313 29.375C27.0313 29.5822 26.9489 29.7809 26.8024 29.9274C26.6559 30.0739 26.4572 30.1563 26.25 30.1563H12.1875C11.9803 30.1563 11.7816 30.0739 11.6351 29.9274C11.4886 29.7809 11.4062 29.5822 11.4062 29.375V12.9688C11.4062 12.1399 11.7355 11.3451 12.3215 10.759C12.9076 10.173 13.7024 9.84375 14.5313 9.84375H27.8125C28.0197 9.84375 28.2184 9.92606 28.3649 10.0726C28.5114 10.2191 28.5938 10.4178 28.5938 10.625Z" fill="black"/>
</svg>
