<svg width="60" height="67" viewBox="0 0 60 67" fill="none" xmlns="http://www.w3.org/2000/svg">
<path fill-rule="evenodd" clip-rule="evenodd" d="M10 20C10 14.6957 12.1071 9.60859 15.8579 5.85786C19.6086 2.10714 24.6957 0 30 0C35.3043 0 40.3914 2.10714 44.1421 5.85786C47.8929 9.60859 50 14.6957 50 20H53.3333C55.1014 20 56.7971 20.7024 58.0474 21.9526C59.2976 23.2029 60 24.8986 60 26.6667V60C60 61.7681 59.2976 63.4638 58.0474 64.714C56.7971 65.9643 55.1014 66.6667 53.3333 66.6667H6.66667C4.89856 66.6667 3.20286 65.9643 1.95262 64.714C0.702379 63.4638 0 61.7681 0 60V26.6667C0 24.8986 0.702379 23.2029 1.95262 21.9526C3.20286 20.7024 4.89856 20 6.66667 20H10ZM30 6.66667C33.5362 6.66667 36.9276 8.07142 39.4281 10.5719C41.9286 13.0724 43.3333 16.4638 43.3333 20H16.6667C16.6667 16.4638 18.0714 13.0724 20.5719 10.5719C23.0724 8.07142 26.4638 6.66667 30 6.66667ZM36.6667 40C36.6666 41.1702 36.3586 42.3198 35.7735 43.3332C35.1883 44.3467 34.3468 45.1882 33.3333 45.7733V50C33.3333 50.8841 32.9821 51.7319 32.357 52.357C31.7319 52.9821 30.8841 53.3333 30 53.3333C29.1159 53.3333 28.2681 52.9821 27.643 52.357C27.0179 51.7319 26.6667 50.8841 26.6667 50V45.7733C25.3958 45.0395 24.4026 43.9069 23.841 42.5511C23.2795 41.1952 23.181 39.692 23.5608 38.2745C23.9406 36.857 24.7775 35.6044 25.9418 34.7111C27.106 33.8177 28.5325 33.3334 30 33.3333C31.7681 33.3333 33.4638 34.0357 34.714 35.286C35.9643 36.5362 36.6667 38.2319 36.6667 40Z" fill="white"/>
</svg>
